<svg width="40" height="40" viewBox="0 0 40 40" fill="none" xmlns="http://www.w3.org/2000/svg">
<path d="M35.35 26.4832C34.2897 28.9907 32.6313 31.2002 30.5198 32.9187C28.4083 34.6372 25.9079 35.8123 23.2374 36.3412C20.5668 36.8701 17.8074 36.7368 15.2002 35.9529C12.5931 35.169 10.2177 33.7583 8.28168 31.8443C6.34567 29.9303 4.908 27.5711 4.09437 24.9731C3.28074 22.3751 3.11592 19.6174 3.61431 16.9409C4.1127 14.2645 5.25914 11.7509 6.95339 9.61994C8.64764 7.48894 10.8381 5.80542 13.3333 4.71655" stroke="white" stroke-width="2" stroke-linecap="round" stroke-linejoin="round"/>
<path d="M36.6667 19.9999C36.6667 17.8112 36.2356 15.644 35.398 13.6219C34.5604 11.5998 33.3328 9.76245 31.7851 8.21481C30.2375 6.66716 28.4002 5.4395 26.3781 4.60193C24.356 3.76435 22.1887 3.33325 20 3.33325V19.9999H36.6667Z" stroke="white" stroke-width="2" stroke-linecap="round" stroke-linejoin="round"/>
</svg>
